<svg id="visual" viewBox="0 0 960 540" width="960" height="540" xmlns="http://www.w3.org/2000/svg" xmlns:xlink="http://www.w3.org/1999/xlink" version="1.1"><rect x="0" y="0" width="960" height="540" fill="#211A1D"></rect><defs><linearGradient id="grad1_0" x1="43.8%" y1="0%" x2="100%" y2="100%"><stop offset="14.444444444444446%" stop-color="#211a1d" stop-opacity="1"></stop><stop offset="85.55555555555554%" stop-color="#211a1d" stop-opacity="1"></stop></linearGradient></defs><defs><linearGradient id="grad2_0" x1="0%" y1="0%" x2="56.3%" y2="100%"><stop offset="14.444444444444446%" stop-color="#211a1d" stop-opacity="1"></stop><stop offset="85.55555555555554%" stop-color="#211a1d" stop-opacity="1"></stop></linearGradient></defs><g transform="translate(960, 0)"><path d="M0 378C-54.4 374 -108.9 370.1 -140.4 339.1C-172 308 -180.6 249.9 -217.1 217.1C-253.5 184.2 -317.8 176.6 -349.2 144.7C-380.7 112.7 -379.3 56.3 -378 0L0 0Z" fill="#8075FF"></path></g><g transform="translate(0, 540)"><path d="M0 -378C48.8 -359.7 97.6 -341.4 129 -311.3C160.3 -281.3 174.2 -239.5 213.5 -213.5C252.9 -187.6 317.6 -177.6 349.2 -144.7C380.9 -111.7 379.4 -55.9 378 0L0 0Z" fill="#8075FF"></path></g></svg>